<!-- Generated by IcoMoon.io -->
<svg version="1.1" xmlns="http://www.w3.org/2000/svg" width="24" height="24" viewBox="0 0 24 24">
<title>close</title>
<path d="M13.397 11.995l5.142 5.142c0.181 0.18 0.293 0.429 0.293 0.704 0 0.548-0.444 0.992-0.992 0.992-0.275 0-0.524-0.112-0.704-0.293l-5.142-5.142-5.142 5.142c-0.179 0.179-0.427 0.29-0.701 0.29-0.548 0-0.992-0.444-0.992-0.992 0-0.274 0.111-0.522 0.29-0.701l5.142-5.142-5.142-5.142c-0.179-0.179-0.29-0.427-0.29-0.701 0-0.548 0.444-0.992 0.992-0.992 0.274 0 0.522 0.111 0.701 0.29l5.142 5.142 5.142-5.142c0.18-0.181 0.429-0.293 0.704-0.293 0.548 0 0.992 0.444 0.992 0.992 0 0.275-0.112 0.524-0.293 0.704z"></path>
</svg>
