<!-- Generated by IcoMoon.io -->
<svg version="1.1" xmlns="http://www.w3.org/2000/svg" width="24" height="24" viewBox="0 0 24 24">
<title>document</title>
<path d="M4.667 2.333c-0.736 0-1.333 0.597-1.333 1.333v16.667c0 0.736 0.597 1.333 1.333 1.333h14.667c0.736 0 1.333-0.597 1.333-1.333v-12.667c0-0.502-1.403-1.752-2.667-3-1.171-1.156-2.189-2.333-2.667-2.333h-10.667zM5.7 4h9.084l4.216 4.175v11.129c-0.001 0.384-0.313 0.696-0.698 0.696-0.001 0-0.002 0-0.002 0h-12.6c-0.001 0-0.002 0-0.002 0-0.385 0-0.696-0.311-0.698-0.695v-14.609c0.001-0.384 0.313-0.696 0.698-0.696 0.001 0 0.001 0 0.002 0zM8.167 7.667h7c0.46 0 0.833 0.373 0.833 0.833s-0.373 0.833-0.833 0.833h-7c-0.46 0-0.833-0.373-0.833-0.833s0.373-0.833 0.833-0.833zM8.167 11.333h7c0.46 0 0.833 0.373 0.833 0.833s-0.373 0.833-0.833 0.833h-7c-0.46 0-0.833-0.373-0.833-0.833s0.373-0.833 0.833-0.833zM8.167 15h4.333c0.46 0 0.833 0.373 0.833 0.833s-0.373 0.833-0.833 0.833h-4.333c-0.46 0-0.833-0.373-0.833-0.833s0.373-0.833 0.833-0.833z"></path>
</svg>
