<!-- Generated by IcoMoon.io -->
<svg version="1.1" xmlns="http://www.w3.org/2000/svg" width="24" height="24" viewBox="0 0 24 24">
<title>edit</title>
<path d="M15.017 4.333h-9.617c-0.405 0-0.733 0.328-0.733 0.733v13.867c0 0.405 0.328 0.733 0.733 0.733h13.197c0.405 0 0.733-0.328 0.733-0.733v-9.481l1.666-1.666v12.214c0 0.736-0.597 1.333-1.333 1.333h-15.33c-0.736 0-1.333-0.597-1.333-1.333v-16c0-0.736 0.597-1.333 1.333-1.333h12.35zM19.93 2.668l1.403 1.403-10.664 10.66-2.004 0.601 0.601-2.004z"></path>
</svg>
