<!-- Generated by IcoMoon.io -->
<svg version="1.1" xmlns="http://www.w3.org/2000/svg" width="36" height="32" viewBox="0 0 36 32">
<title>heart-o</title>
<path d="M33.373 17.335c1.68-1.844 2.704-4.297 2.704-6.988 0-0.009 0-0.018-0-0.026 0-5.7-4.543-10.321-10.147-10.321-3.188 0-6.032 1.496-7.892 3.834-1.86-2.339-4.704-3.834-7.892-3.834-5.604 0-10.147 4.621-10.147 10.32-0 0.009-0 0.019-0 0.028 0 2.691 1.024 5.143 2.696 6.979l-0.024 0.012 0.293 0.274c0.202 0.206-1.267-6.832 0.631 0.59l14.747 13.798 15.061-14.662-0.024-0.012zM28.040 16.837l0.016 0.007-9.79 9.52s-11.353-10.644-11.865-11.116c-1.673-1.378-2.328-3.113-2.328-4.947 0-3.425 2.683-6.227 6.168-6.227 1.996 0 3.528 0.978 4.713 2.444s2.455 3.076 3.084 3.899c0.577-0.724 1.242-1.58 3.026-3.841s3.841-2.503 4.888-2.503c3.227 0 6.052 2.712 6.052 6.169 0 3.772-2.876 5.399-3.964 6.594z"></path>
</svg>
