<!-- Generated by IcoMoon.io -->
<svg version="1.1" xmlns="http://www.w3.org/2000/svg" width="32" height="32" viewBox="0 0 32 32">
<title>heart</title>
<path d="M29.608 17.177l0.021 0.010-13.359 13.005-13.081-12.239q-0.29-0.25-0.559-0.523l-0.26-0.243 0.021-0.010c-1.483-1.629-2.392-3.804-2.392-6.191 0-0.008 0-0.016 0-0.025 0-5.055 4.029-9.154 9-9.154 2.828 0 5.35 1.327 7 3.401 1.65-2.074 4.172-3.401 7-3.401 4.971 0 9 4.099 9 9.155 0 0.007 0 0.015 0 0.023 0 2.387-0.908 4.562-2.398 6.198z"></path>
</svg>
