<!-- Generated by IcoMoon.io -->
<svg version="1.1" xmlns="http://www.w3.org/2000/svg" width="24" height="24" viewBox="0 0 24 24">
<title>info</title>
<path d="M12 2.667c-5.155 0-9.333 4.179-9.333 9.333s4.179 9.333 9.333 9.333c5.155 0 9.333-4.179 9.333-9.333s-4.179-9.333-9.333-9.333zM12 4.667c4.050 0 7.333 3.283 7.333 7.333s-3.283 7.333-7.333 7.333-7.333-3.283-7.333-7.333 3.283-7.333 7.333-7.333zM12 7.333c0.736 0 1.333 0.597 1.333 1.333s-0.597 1.333-1.333 1.333c-0.736 0-1.333-0.597-1.333-1.333s0.597-1.333 1.333-1.333zM11.033 11h1.933c0.018 0 0.033 0.015 0.033 0.033v5.933c0 0.018-0.015 0.033-0.033 0.033h-1.933c-0.018 0-0.033-0.015-0.033-0.033v-5.933c0-0.018 0.015-0.033 0.033-0.033z"></path>
</svg>
