<!-- Generated by IcoMoon.io -->
<svg version="1.1" xmlns="http://www.w3.org/2000/svg" width="24" height="24" viewBox="0 0 24 24">
<title>more</title>
<path d="M12 2.667c1.013 0 1.833 0.821 1.833 1.833s-0.821 1.833-1.833 1.833c-1.013 0-1.833-0.821-1.833-1.833s0.821-1.833 1.833-1.833zM12 10c1.013 0 1.833 0.821 1.833 1.833s-0.821 1.833-1.833 1.833c-1.013 0-1.833-0.821-1.833-1.833s0.821-1.833 1.833-1.833zM12 17.333c1.013 0 1.833 0.821 1.833 1.833s-0.821 1.833-1.833 1.833c-1.013 0-1.833-0.821-1.833-1.833s0.821-1.833 1.833-1.833z"></path>
</svg>
