<!-- Generated by IcoMoon.io -->
<svg version="1.1" xmlns="http://www.w3.org/2000/svg" width="32" height="32" viewBox="0 0 32 32">
<title>telephone</title>
<path d="M31.094 28.743c0.023 0.1 0.036 0.215 0.036 0.333 0 0.005-0 0.010-0 0.015 0 1.298-0.912 2.908-2.037 2.908-0.187 0-0.369-0.025-0.541-0.072-7.495-0.549-13.914-4.188-18.953-9.237-4.913-4.923-8.514-11.184-9.191-18.464-0.076-0.22-0.119-0.473-0.119-0.736 0-1.285 1.042-2.327 2.327-2.327 0 0 0 0 0.001 0l-0-0.003 4.655-1.16 3.492 8.727-4.812 3.207c1.473 3.123 3.498 5.946 5.976 8.429 2.588 2.593 5.542 4.554 8.819 5.902l3.402-4.157 7.565 2.909z"></path>
</svg>
