<!-- Generated by IcoMoon.io -->
<svg version="1.1" xmlns="http://www.w3.org/2000/svg" width="24" height="24" viewBox="0 0 24 24">
<title>trash</title>
<path d="M20.833 5h-0.833l-1 15.667c0 0.736-0.597 1.333-1.333 1.333h-11.333c-0.736 0-1.333-0.597-1.333-1.333l-1-15.667h-0.833c-0.46 0-0.833-0.373-0.833-0.833s0.373-0.833 0.833-0.833h6.167v-0.5c0-0.46 0.373-0.833 0.833-0.833h3.667c0.46 0 0.833 0.373 0.833 0.833v0.5h6.167c0.46 0 0.833 0.373 0.833 0.833s-0.373 0.833-0.833 0.833zM5.934 5l0.788 14.633c0.001 0.387 0.315 0.7 0.702 0.7 0.001 0 0.001 0 0.002 0h9.148c0.001 0 0.001 0 0.002 0 0.387 0 0.701-0.313 0.702-0.7l0.788-14.633h-12.132zM15 16.333c0 0 0 0 0 0.001 0 0.46-0.373 0.833-0.833 0.833s-0.833-0.373-0.833-0.833v0 0-7.667c0-0.46 0.373-0.833 0.833-0.833s0.833 0.373 0.833 0.833c0 0 0 0 0 0.001v7.665zM10.667 16.333c0 0 0 0 0 0.001 0 0.46-0.373 0.833-0.833 0.833s-0.833-0.373-0.833-0.833v0 0-7.667c0-0.46 0.373-0.833 0.833-0.833s0.833 0.373 0.833 0.833c0 0 0 0 0 0.001v7.665z"></path>
</svg>
