<!-- Generated by IcoMoon.io -->
<svg version="1.1" xmlns="http://www.w3.org/2000/svg" width="31" height="32" viewBox="0 0 31 32">
<title>trash</title>
<path d="M29.641 4.8h-1.335l-1.602 25.067c-0.001 1.178-0.956 2.133-2.135 2.133-0.001 0-0.001 0-0.002 0h-18.158c-0 0-0.001 0-0.001 0-1.178 0-2.134-0.955-2.135-2.133l-1.602-25.067h-1.335c-0.002 0-0.004 0-0.007 0-0.736 0-1.333-0.597-1.333-1.333s0.597-1.333 1.333-1.333c0.002 0 0.005 0 0.007 0h9.88v-0.8c0.001-0.737 0.598-1.333 1.334-1.333 0 0 0.001 0 0.001 0h5.875c0 0 0.001 0 0.001 0 0.737 0 1.334 0.597 1.334 1.333v0.8h9.88c0.736 0 1.333 0.597 1.333 1.333s-0.597 1.333-1.333 1.333zM5.769 4.8l1.263 23.413c0.002 0.619 0.504 1.12 1.124 1.12 0.001 0 0.003 0 0.004 0h14.657c0.001 0 0.002 0 0.004 0 0.619 0 1.122-0.501 1.124-1.12l1.263-23.413h-19.438zM18.959 9.066c0.737 0 1.334 0.597 1.334 1.334v12.799c0 0.737-0.597 1.334-1.334 1.334s-1.334-0.597-1.334-1.334v-12.799c0-0 0-0 0-0 0-0.737 0.597-1.334 1.334-1.334 0 0 0 0 0 0zM12.017 9.066c0.737 0 1.334 0.597 1.334 1.334v12.799c0 0.737-0.597 1.334-1.335 1.334s-1.335-0.597-1.335-1.334v-12.799c0-0 0-0 0-0 0-0.737 0.597-1.334 1.334-1.334 0 0 0 0 0 0z"></path>
</svg>
