<!-- Generated by IcoMoon.io -->
<svg version="1.1" xmlns="http://www.w3.org/2000/svg" width="24" height="24" viewBox="0 0 24 24">
<title>user</title>
<path d="M18.333 21.333c0-0.361-0.017-0.653-0.017-0.979-0.133-2.050-1.589-3.255-6.317-3.255s-6.256 1.199-6.318 3.257c0 0.34-0.014 0.508-0.014 0.977h-2c0-0.69 0.019-0.766 0.019-1.436 0.554-3.543 3.325-4.786 8.314-4.786 4.947 0 7.75 1.243 8.312 4.784 0 0.754 0.022 0.908 0.022 1.438h-2zM12 14c-2.717 0-4.671-3.114-4.671-6.547 0-2.921 2.135-4.787 4.671-4.787 2.512 0 4.671 1.945 4.671 4.787 0 3.423-1.668 6.547-4.671 6.547zM12 4.667c-0.497 0-2.667 0.152-2.667 3.097 0 1.426 0.9 4.236 2.667 4.236s2.667-2.465 2.667-4.236c0-2.925-2.17-3.097-2.667-3.097z"></path>
</svg>
