<!-- Generated by IcoMoon.io -->
<svg version="1.1" xmlns="http://www.w3.org/2000/svg" width="24" height="24" viewBox="0 0 24 24">
<title>volume</title>
<path d="M17 19.567v-1.929c1.821-1.245 3-3.312 3-5.654s-1.179-4.409-2.977-5.639l-0.023-1.945c2.769 1.401 4.667 4.27 4.667 7.583s-1.898 6.183-4.667 7.583zM14.667 16.067v-1.726c0.979-0.354 1.667-1.275 1.667-2.357s-0.687-2.004-1.649-2.352l-0.017-1.732c1.916 0.402 3.334 2.077 3.334 4.083s-1.418 3.682-3.306 4.079zM11.333 6.782v10.437l-4.588-2.724-0.412-0.134h-2c-0 0-0 0-0 0-0.184 0-0.333-0.149-0.333-0.333 0-0 0-0 0-0v-3.874c0-0.185 0.15-0.46 0.333-0.461h2l0.42-0.191 4.246-2.386zM11.975 4.106c-0.183 0.115-6.309 3.919-6.309 3.919h-2.333c-0 0-0 0-0 0-0.552 0-1 0.448-1 1 0 0 0 0 0 0.001v6.001c0 0 0 0.001 0 0.001 0 0.552 0.447 0.999 0.999 0.999 0 0 0.001 0 0.001 0h2.333l6.309 3.867c0.101 0.066 0.224 0.106 0.356 0.106 0.369-0.001 0.668-0.3 0.668-0.669 0-0.001 0-0.001 0-0.002v-14.657c0-0.002 0-0.005 0-0.007 0-0.367-0.298-0.665-0.665-0.665-0.134 0-0.258 0.040-0.363 0.108z"></path>
</svg>
