<!-- Generated by IcoMoon.io -->
<svg version="1.1" xmlns="http://www.w3.org/2000/svg" width="39" height="32" viewBox="0 0 39 32">
<title>volume</title>
<path d="M24.684 23.896v-4.175c1.58-0.671 2.669-2.209 2.669-4.002s-1.088-3.332-2.64-3.991l-0.028-4.184c3.831 0.809 6.666 4.161 6.666 8.176s-2.834 7.367-6.611 8.166zM29.354 30.898v-4.678c3.235-2.365 5.337-6.187 5.337-10.501s-2.102-8.137-5.337-10.502v-4.672c5.541 2.802 9.34 8.546 9.34 15.177 0 6.63-3.799 12.373-9.34 15.175zM17.346 6.23v19.54l-8.515-5.448-0.825-0.269h-3.336c-0 0-0.001 0-0.001 0-0.368 0-0.666-0.298-0.666-0.666 0-0 0-0.001 0-0.001v-6.414c0-0.37 0.299-0.921 0.667-0.922h3.336l0.841-0.382 8.498-5.438zM20.011-0.001c-0.265 0.001-0.512 0.080-0.718 0.215l-12.621 7.836h-4.67c-0 0-0.001 0-0.001 0-1.105 0-2 0.895-2 2 0 0 0 0 0 0.001v12.003c0 0.001 0 0.001 0 0.002 0 1.104 0.895 1.998 1.998 1.998 0.001 0 0.002 0 0.003 0h4.67l12.626 7.734c0.201 0.132 0.448 0.212 0.713 0.212 0.739-0.001 1.338-0.6 1.338-1.339 0-0.001 0-0.003 0-0.004v-29.314c0-0.001 0-0.003 0-0.004 0-0.739-0.599-1.338-1.337-1.339h-0z"></path>
</svg>
